<?xml version="1.0" encoding="UTF-8"?>
<svg width="14px" height="14px" viewBox="0 0 14 14" version="1.1" xmlns="http://www.w3.org/2000/svg" xmlns:xlink="http://www.w3.org/1999/xlink">
    <!-- Generator: Sketch 52.5 (67469) - http://www.bohemiancoding.com/sketch -->
    <title>Layer_5</title>
    <desc>Created with Sketch.</desc>
    <g id="Page-1" stroke="none" stroke-width="1" fill="none" fill-rule="evenodd">
        <g id="Add-white" fill="#FFFFFF">
            <g id="Layer_5">
                <path d="M9.76,6.22 L7.69,6.22 L7.69,3.97 C7.69,3.57235498 7.36764502,3.25 6.97,3.25 C6.57235498,3.25 6.25,3.57235498 6.25,3.97 L6.25,6.22 L4.07,6.22 C3.69177321,6.26389364 3.40645808,6.58423478 3.40645808,6.965 C3.40645808,7.34576522 3.69177321,7.66610636 4.07,7.71 L6.25,7.71 L6.25,9.83 C6.25,10.227645 6.57235498,10.55 6.97,10.55 C7.36764502,10.55 7.69,10.227645 7.69,9.83 L7.69,7.71 L9.76,7.71 C10.1382268,7.66610636 10.4235419,7.34576522 10.4235419,6.965 C10.4235419,6.58423478 10.1382268,6.26389364 9.76,6.22 Z" id="Path"></path>
                <path d="M11.94,0.22 L1.65,0.22 C1.36793003,0.191647302 1.08708124,0.284349186 0.877314637,0.4750461 C0.66754803,0.665743015 0.548578624,0.936512219 0.55,1.22 L0.55,12.82 C0.548578624,13.1034878 0.66754803,13.374257 0.877314637,13.5649539 C1.08708124,13.7556508 1.36793003,13.8483527 1.65,13.82 L11.94,13.82 C12.22207,13.8483527 12.5029188,13.7556508 12.7126854,13.5649539 C12.922452,13.374257 13.0414214,13.1034878 13.04,12.82 L13.04,1.18 C13.0303379,0.903524504 12.906575,0.643404359 12.6981443,0.461501274 C12.4897137,0.279598188 12.2152406,0.192166793 11.94,0.22 Z M11.49,12.71 L2.2,12.71 C1.93,12.71 1.76,12.57 1.76,12.34 L1.76,1.66 C1.76,1.43 1.93,1.29 2.2,1.29 L11.51,1.29 C11.78,1.29 11.96,1.43 11.96,1.66 L11.96,12.34 C11.94,12.57 11.78,12.71 11.51,12.71 L11.49,12.71 Z" id="Shape" fill-rule="nonzero"></path>
            </g>
        </g>
    </g>
</svg>