<svg xmlns="http://www.w3.org/2000/svg" viewBox="0 0 18.03 15.94"><defs><style>.cls-1{fill:#527f21;}.cls-2{fill:#fff;}</style></defs><title>Add-white</title><g id="Layer_3" data-name="Layer 3"><rect class="cls-1" width="18.03" height="15.94"/></g><g id="Layer_5" data-name="Layer 5"><path class="cls-2" d="M9.82,6.25H7.75V4A.72.72,0,1,0,6.31,4V6.25H4.13a.75.75,0,0,0,0,1.49H6.31V9.86a.72.72,0,1,0,1.44,0V7.74H9.82a.75.75,0,0,0,0-1.49Z" transform="translate(1.94 0.97)"/><path class="cls-2" d="M12,.25H1.71a1,1,0,0,0-1.1,1V12.85a1,1,0,0,0,1.1,1H12a1,1,0,0,0,1.1-1V1.21A1,1,0,0,0,12,.25Zm-.45,12.49H2.26c-.27,0-.44-.14-.44-.37V1.69c0-.23.17-.37.44-.37h9.31c.27,0,.45.14.45.37V12.37C12,12.6,11.84,12.74,11.57,12.74Z" transform="translate(1.94 0.97)"/></g></svg>