<?xml version="1.0" encoding="UTF-8"?>
<svg width="12px" height="14px" viewBox="0 0 12 14" version="1.1" xmlns="http://www.w3.org/2000/svg" xmlns:xlink="http://www.w3.org/1999/xlink">
    <!-- Generator: Sketch 52.5 (67469) - http://www.bohemiancoding.com/sketch -->
    <title>data_image_svg+xml;… (1)</title>
    <desc>Created with Sketch.</desc>
    <g id="Page-1" stroke="none" stroke-width="1" fill="none" fill-rule="evenodd">
        <g id="data_image_svg+xml;…-(1)" fill="#FFFFFF">
            <path d="M5.3,9.7 L5.3,4.2 C5.3,3.8 5.6,3.5 6,3.5 C6.4,3.5 6.7,3.8 6.7,4.2 L6.7,9.7 C6.7,10.1 6.4,10.4 6,10.4 C5.6,10.4 5.3,10.1 5.3,9.7 Z" id="Path"></path>
            <path d="M3.2,6.3 L8.7,6.3 C9.1,6.3 9.4,6.6 9.4,7 C9.4,7.4 9.1,7.7 8.7,7.7 L3.2,7.7 C2.8,7.7 2.5,7.4 2.5,7 C2.5,6.6 2.8,6.3 3.2,6.3 Z" id="Path"></path>
            <path d="M0.5,12.2 L0.5,0.9 C0.5,0.4 0.9,0 1.4,0 L10.7,0 C11.2,0 11.6,0.4 11.6,0.9 L11.6,13.1 C11.6,13.6 11.2,14 10.7,14 L1.4,14 C0.9,14 0.5,13.6 0.5,13.1 L0.5,12.2 L1.4,12.1 L1.4,12.6 C1.4,12.9 1.6,13.1 1.9,13.1 L10.3,13.1 C10.6,13.1 10.8,12.9 10.8,12.6 L10.8,1.4 C10.8,1.1 10.6,0.9 10.3,0.9 L1.9,0.9 C1.6,0.9 1.4,1.1 1.4,1.4 L1.4,12.2 L0.5,12.2 Z" id="Path"></path>
        </g>
    </g>
</svg>