<?xml version="1.0" encoding="UTF-8"?>
<svg width="14px" height="14px" viewBox="0 0 14 14" version="1.1" xmlns="http://www.w3.org/2000/svg" xmlns:xlink="http://www.w3.org/1999/xlink">
    <!-- Generator: Sketch 52.5 (67469) - http://www.bohemiancoding.com/sketch -->
    <title>Layer_4</title>
    <desc>Created with Sketch.</desc>
    <g id="Page-1" stroke="none" stroke-width="1" fill="none" fill-rule="evenodd">
        <g id="change-password-2" transform="translate(-2.000000, -1.000000)" fill="#FFFFFF">
            <g id="Layer_4" transform="translate(2.000000, 1.000000)">
                <path d="M12.1,4.86 L11.94,4.86 C11.7363095,2.28492096 9.62220923,0.278682945 7.04,0.21 C4.46354075,0.288221318 2.35767355,2.29073307 2.15,4.86 L1.94,4.86 C0.989158037,4.88173918 0.22975152,5.65890959 0.23,6.61 L0.23,11.67 C0.22975152,12.6210904 0.989158037,13.3982608 1.94,13.42 L12.1,13.42 C13.0664983,13.42 13.85,12.6364983 13.85,11.67 L13.85,6.61 C13.8445368,5.64577367 13.0642263,4.86546317 12.1,4.86 Z M12.87,11.67 C12.8700351,12.0969069 12.5268718,12.4445268 12.1,12.45 L1.94,12.45 C1.5092179,12.45 1.16,12.1007821 1.16,11.67 L1.16,6.61 C1.15998263,6.40403882 1.24247867,6.20665546 1.38905176,6.06196152 C1.53562484,5.91726758 1.73405619,5.83732518 1.94,5.84 L2.94,5.84 C3.05045695,5.84 3.14,5.75045695 3.14,5.64 L3.14,5.36 C3.10480489,3.14651099 4.82910852,1.30283249 7.04,1.19 C9.25326183,1.29772253 10.9804521,3.14448749 10.94,5.36 L10.94,5.64 C10.94,5.75045695 11.0295431,5.84 11.14,5.84 L12.06,5.84 C12.4852593,5.84 12.83,6.18474074 12.83,6.61 L12.87,11.67 Z" id="Shape" fill-rule="nonzero"></path>
                <path d="M10.24,5.33 C10.2464008,3.55121137 8.83780602,2.08946204 7.06,2.03 C5.28448767,2.09460642 3.87882496,3.55331302 3.88,5.33 L3.88,5.58 C3.88415405,5.62902393 3.90538905,5.6750331 3.94,5.71 C3.97882251,5.72372583 4.02117749,5.72372583 4.06,5.71 L10.06,5.71 C10.1019853,5.72528572 10.1480147,5.72528572 10.19,5.71 C10.2209704,5.67361657 10.2386077,5.6277596 10.24,5.58 L10.24,5.33 Z M4.78,4.91 C4.96182476,3.78271075 5.91863012,2.9434078 7.06,2.91 C8.20364451,2.94261221 9.16376921,3.78114907 9.35,4.91 L4.78,4.91 Z" id="Shape" fill-rule="nonzero"></path>
                <path d="M6.19,8.61 L6.79,6.4 L4.57,6.97 L5.07,7.47 C4.68758863,7.95732564 4.48297446,8.56058465 4.49,9.18 C4.48793218,10.2275394 5.08118515,11.1852746 6.02,11.65 L6.1,11.65 C6.34573501,11.7132878 6.59630583,11.56563 6.66,11.32 C6.72031961,11.1084179 6.61880608,10.8842422 6.42,10.79 L6.21,10.67 C5.37463323,10.0929517 5.16041905,8.95047603 5.73,8.11 L6.19,8.61 Z" id="Path"></path>
                <path d="M8.51,6.74 C8.51,6.74 8.46,6.74 8.43,6.74 C8.20604571,6.68595301 7.97664896,6.80591503 7.89326924,7.020681 C7.80988951,7.23544697 7.89824547,7.47877181 8.1,7.59 C8.71007677,7.90556663 9.09510213,8.53315797 9.1,9.22 C9.09214338,9.57877638 8.97722461,9.92701506 8.77,10.22 L8.31,9.76 L7.72,11.97 L9.93,11.37 L9.43,10.87 C9.92711568,10.2203785 10.1116831,9.38425189 9.93423289,8.58572602 C9.7567827,7.78720016 9.23546214,7.10793757 8.51,6.73 L8.51,6.74 Z" id="Path"></path>
            </g>
        </g>
    </g>
</svg>