<svg xmlns="http://www.w3.org/2000/svg" viewBox="0 0 18.03 15.94"><defs><style>.cls-1{fill:#527f21;}.cls-2{fill:#fff;}</style></defs><title>password-white</title><g id="Layer_3" data-name="Layer 3"><rect class="cls-1" width="18.03" height="15.94"/></g><g id="Layer_4" data-name="Layer 4"><path class="cls-2" d="M12.16,4.89H12A5.05,5.05,0,0,0,7.1.24,5.06,5.06,0,0,0,2.21,4.89H2A1.75,1.75,0,0,0,.29,6.64V11.7A1.75,1.75,0,0,0,2,13.45H12.16a1.75,1.75,0,0,0,1.75-1.75V6.64A1.76,1.76,0,0,0,12.16,4.89Zm.77,6.81a.78.78,0,0,1-.77.78H2a.78.78,0,0,1-.78-.78V6.64A.77.77,0,0,1,2,5.87H3a.2.2,0,0,0,.2-.2V5.39A4.11,4.11,0,0,1,7.1,1.22,4.1,4.1,0,0,1,11,5.39v.28a.2.2,0,0,0,.2.2h.92a.77.77,0,0,1,.77.77Z" transform="translate(1.94 0.97)"/><path class="cls-2" d="M10.3,5.36a3.29,3.29,0,0,0-3.18-3.3,3.3,3.3,0,0,0-3.18,3.3v.25A.21.21,0,0,0,4,5.74a.18.18,0,0,0,.12,0h6a.19.19,0,0,0,.13,0,.21.21,0,0,0,.05-.13ZM4.84,4.94a2.38,2.38,0,0,1,2.28-2,2.39,2.39,0,0,1,2.29,2Z" transform="translate(1.94 0.97)"/><path class="cls-2" d="M6.25,8.64l.6-2.21L4.63,7l.5.5a2.72,2.72,0,0,0-.58,1.71,2.75,2.75,0,0,0,1.53,2.47l.08,0a.46.46,0,0,0,.56-.33.45.45,0,0,0-.24-.53h0l-.21-.12a1.85,1.85,0,0,1-.48-2.56Z" transform="translate(1.94 0.97)"/><path class="cls-2" d="M8.57,6.77s-.05,0-.08,0a.46.46,0,0,0-.33.85,1.85,1.85,0,0,1,1,1.63,1.8,1.8,0,0,1-.33,1l-.46-.46L7.78,12l2.21-.6-.5-.5a2.77,2.77,0,0,0-.92-4.14Z" transform="translate(1.94 0.97)"/></g></svg>