<?xml version="1.0" encoding="UTF-8"?>
<svg width="13px" height="18px" viewBox="0 0 13 18" version="1.1" xmlns="http://www.w3.org/2000/svg" xmlns:xlink="http://www.w3.org/1999/xlink">
    <!-- Generator: Sketch 52.5 (67469) - http://www.bohemiancoding.com/sketch -->
    <title>Shape</title>
    <desc>Created with Sketch.</desc>
    <g id="Page-1" stroke="none" stroke-width="1" fill="none" fill-rule="evenodd">
        <g id="data_image_svg+xml;…-(2)" transform="translate(0.600000, 0.200000)" fill="#FFFFFF">
            <path d="M10.85,5.9334 L10.075,5.9334 L10.075,4.238 C10.075,1.893 8.344,0 6.2,0 C4.056,0 2.325,1.893 2.325,4.238 L2.325,5.9334 L1.55,5.9334 C0.6974,5.9334 0,6.6962 0,7.6286 L0,16.1046 C0,17.0374 0.6974,17.8 1.55,17.8 L10.85,17.8 C11.7026,17.8 12.4,17.0372 12.4,16.1048 L12.4,7.6288 C12.4,6.6962 11.7026,5.9334 10.85,5.9334 Z M3.7974,4.238 C3.7974,2.7972 4.8824,1.6104 6.2,1.6104 C7.5176,1.6104 8.6024,2.7972 8.6024,4.238 L8.6024,5.9334 L3.7978,5.9334 L3.7978,4.238 L3.7974,4.238 Z M1.886,11.782 L3.0484,11.782 C3.0484,9.8888 4.4434,8.3632 6.1744,8.3632 C6.7944,8.3632 7.3624,8.5612 7.8276,8.9 L7.2592,9.5216 C6.9232,9.3236 6.5616,9.2108 6.1742,9.2108 C4.8828,9.2108 3.8236,10.3692 3.8236,11.782 L4.986,11.782 L3.41,13.5054 L1.886,11.782 Z M9.326,11.782 C9.326,13.675 7.9308,15.2006 6.2,15.2006 C5.58,15.2006 5.0116,15.0026 4.5466,14.6638 L5.115,14.0418 C5.451,14.2398 5.8124,14.3528 6.2,14.3528 C7.4916,14.3528 8.5508,13.1944 8.5508,11.7818 L7.3884,11.7818 L8.9644,10.0582 L10.54,11.782 L9.326,11.782 Z" id="Shape"></path>
        </g>
    </g>
</svg>