<?xml version="1.0" encoding="UTF-8"?>
<svg width="14px" height="14px" viewBox="0 0 14 14" version="1.1" xmlns="http://www.w3.org/2000/svg" xmlns:xlink="http://www.w3.org/1999/xlink">
    <!-- Generator: Sketch 52.5 (67469) - http://www.bohemiancoding.com/sketch -->
    <title>Shape</title>
    <desc>Created with Sketch.</desc>
    <g id="Page-1" stroke="none" stroke-width="1" fill="none" fill-rule="evenodd">
        <g id="Life-white-3" fill="#FFFFFF" fill-rule="nonzero">
            <path d="M6.63,13.26 C2.96835211,13.26 -1.27675648e-15,10.2916479 -1.77635684e-15,6.63 C-2.22044605e-15,2.96835211 2.96835211,-1.11022302e-15 6.63,-1.77635684e-15 C10.2916479,-2.3869795e-15 13.26,2.96835211 13.26,6.63 C13.254493,10.2893644 10.2893644,13.254493 6.63,13.26 Z M6.63,1.03 C3.5372054,1.03 1.03,3.5372054 1.03,6.63 C1.03,9.7227946 3.5372054,12.23 6.63,12.23 C9.7227946,12.23 12.23,9.7227946 12.23,6.63 C12.23,5.14478766 11.6400017,3.72040574 10.589798,2.67020203 C9.53959426,1.61999831 8.11521234,1.03 6.63,1.03 Z M6.5,10.37 C6.33960435,10.3671733 6.18474664,10.3108614 6.06,10.21 L5.8,10.01 L5,9.38 C3.26,7.91 2.57,6.47 3,5.11 C3.12037884,4.65838687 3.37491875,4.25391248 3.73,3.95 C4.09920045,3.65470565 4.55724127,3.49262966 5.03,3.49 C5.58779493,3.50294945 6.12147989,3.71998133 6.53,4.1 C6.93628007,3.72899899 7.46029523,3.51301977 8.01,3.49 C8.49097308,3.49011332 8.95718834,3.65611421 9.33,3.96 C9.69763429,4.25837385 9.9632583,4.66379997 10.09,5.12 C10.48,6.48 9.79,7.91 8.04,9.38 C7.82,9.57 7.6,9.74 7.25,10.01 L6.98,10.21 C6.85604512,10.3122546 6.70068369,10.3687497 6.54,10.37 L6.5,10.37 Z M5.04,4.45 C4.78458237,4.44874355 4.5368349,4.53722479 4.34,4.7 C4.12095478,4.87254031 3.96319118,5.11093863 3.89,5.38 C3.63,6.34 4.2,7.44 5.63,8.64 L6.4,9.25 L6.53,9.35 L6.63,9.25 C6.97,8.99 7.18,8.82 7.39,8.64 C8.82,7.44 9.39,6.34 9.14,5.38 C9.06024571,5.1139606 8.90369826,4.87740001 8.69,4.7 C8.49059789,4.54300091 8.24378592,4.45837966 7.99,4.46 C7.54384354,4.4909422 7.1373884,4.72742519 6.89,5.1 C6.80094433,5.22691111 6.65503006,5.30173894 6.5,5.3 C6.34455335,5.30353071 6.19784372,5.228295 6.11,5.1 C5.86418656,4.73871648 5.47391668,4.50163665 5.04,4.45 Z" id="Shape"></path>
        </g>
    </g>
</svg>