<?xml version="1.0" encoding="UTF-8"?>
<svg width="14px" height="14px" viewBox="0 0 14 14" version="1.1" xmlns="http://www.w3.org/2000/svg" xmlns:xlink="http://www.w3.org/1999/xlink">
    <!-- Generator: Sketch 52.5 (67469) - http://www.bohemiancoding.com/sketch -->
    <title>path-1-2</title>
    <desc>Created with Sketch.</desc>
    <g id="Page-1" stroke="none" stroke-width="1" fill="none" fill-rule="evenodd">
        <g id="Life-white" fill="#FFFFFF" fill-rule="nonzero">
            <g id="Mask-2-2">
                <path d="M6.73,13.54 C2.9976652,13.512434 -0.00826173394,10.4693042 0.0100817625,6.73691268 C0.0284252589,3.00452117 3.06411826,-0.00891602357 6.79654371,0.000204854435 C10.5289692,0.00932573244 13.5498982,3.03756341 13.55,6.77 C13.5500492,8.57421236 12.8299239,10.3038093 11.549468,11.5748777 C10.2690121,12.8459461 8.53416316,13.5533251 6.73,13.54 Z M6.73,13.05 C9.27360023,13.0662016 11.5757639,11.5464437 12.5604044,9.20109775 C13.5450449,6.85575178 13.017673,4.1480774 11.2247952,2.34370671 C9.43191729,0.539336031 6.72766794,-0.00532629466 4.37607827,0.964308002 C2.0244886,1.9339423 0.490051598,4.22634817 0.49,6.77 C0.48992996,10.2227871 3.27728292,13.0280077 6.73,13.05 Z M6.73,10.46 C6.62536164,10.4572172 6.52411378,10.4223041 6.44,10.36 L6.16,10.14 C5.73,9.87 5.48,9.68 5.23,9.47 C3.48,8 2.73,6.57 3.15,5.23 C3.27240192,4.80414141 3.52397743,4.42677815 3.87,4.15 C4.2136818,3.88772228 4.6379933,3.75335697 5.07,3.77 C5.68617948,3.79454495 6.26345575,4.07773708 6.66,4.55 C7.06253253,4.08544776 7.63625312,3.80399992 8.25,3.77 C8.69101454,3.76856044 9.11879455,3.92058144 9.46,4.2 C9.80674973,4.48031108 10.0582549,4.86106199 10.18,5.29 C10.56,6.62 9.84,8.05 8.09,9.53 C7.86,9.72 7.62,9.91 7.25,10.19 L6.97,10.41 C6.8952553,10.4459324 6.8128754,10.4630949 6.73,10.46 Z M6.73,10.46 C6.67252783,10.4600652 6.61754026,10.4365729 6.5778571,10.395 C6.53817393,10.3534272 6.51726319,10.297407 6.52,10.24 C6.52,10.1240202 6.6140202,10.03 6.73,10.03 L6.99,9.77 C7.36,9.49 7.59,9.31 7.81,9.12 C9.45,7.74 10.1166667,6.47333333 9.81,5.32 C9.70868986,4.97820923 9.50653373,4.67497504 9.23,4.45 C8.96381109,4.23540512 8.63191558,4.11888861 8.29,4.12 C7.71972019,4.15640285 7.19872177,4.45569982 6.88,4.93 C6.83838914,4.98461852 6.77366328,5.01667708 6.705,5.01667708 C6.63633672,5.01667708 6.57161086,4.98461852 6.53,4.93 C6.21127823,4.45569982 5.69027981,4.15640285 5.12,4.12 C4.77808442,4.11888861 4.44618891,4.23540512 4.18,4.45 C3.90006862,4.67186574 3.69713322,4.97626883 3.6,5.32 C3.27,6.46 3.91,7.74 5.6,9.12 L6.33,9.77 L6.61,9.99 L6.73,9.99 C6.8459798,9.99 6.94,10.0840202 6.94,10.2 C6.95564122,10.2636858 6.94063366,10.3310221 6.89942833,10.3820383 C6.85822301,10.4330544 6.79555106,10.4618926 6.73,10.46 Z" id="path-1-2"></path>
            </g>
        </g>
    </g>
</svg>