<svg id="Layer_1" data-name="Layer 1" xmlns="http://www.w3.org/2000/svg" xmlns:xlink="http://www.w3.org/1999/xlink" viewBox="0 0 13.55 13.55"><defs><style>.cls-1{fill:#fff;}.cls-2{mask:url(#mask);}</style><mask id="mask" x="0" y="0" width="13.55" height="13.55" maskUnits="userSpaceOnUse"><g transform="translate(-0.27 -0.23)"><g id="mask-2"><path id="path-1" class="cls-1" d="M7,13.77A6.77,6.77,0,1,1,13.82,7,6.77,6.77,0,0,1,7,13.77Zm0-.49A6.28,6.28,0,1,0,.76,7,6.28,6.28,0,0,0,7,13.28ZM7,10.69h0a.51.51,0,0,1-.29-.1l-.28-.22C6,10.1,5.75,9.91,5.5,9.7,3.75,8.23,3,6.8,3.42,5.46a2.14,2.14,0,0,1,.72-1.08A1.86,1.86,0,0,1,5.34,4a2.19,2.19,0,0,1,1.59.78A2.27,2.27,0,0,1,8.52,4a1.9,1.9,0,0,1,1.21.43,2.16,2.16,0,0,1,.72,1.09c.38,1.33-.34,2.76-2.09,4.24-.23.19-.47.38-.84.66l-.28.22A.51.51,0,0,1,7,10.69Zm0,0a.21.21,0,0,1-.21-.22A.21.21,0,0,1,7,10.26H7L7.26,10c.37-.28.6-.46.82-.65q2.46-2.07,2-3.8a1.77,1.77,0,0,0-.58-.87,1.49,1.49,0,0,0-.94-.33,1.84,1.84,0,0,0-1.41.81.22.22,0,0,1-.35,0,1.84,1.84,0,0,0-1.41-.81,1.49,1.49,0,0,0-.94.33,1.7,1.7,0,0,0-.58.87c-.33,1.14.31,2.42,2,3.8L6.6,10l.28.22H7a.21.21,0,0,1,.21.21A.21.21,0,0,1,7,10.69Z"/></g></g></mask></defs><title>Life-white</title><g id="Atoms"><g id="Icon_Products_LifeInsurance_Outline" data-name="Icon/Products/LifeInsurance/Outline"><g id="Mask-2-2" data-name="Mask"><path id="path-1-2" data-name="path-1" class="cls-1" d="M7,13.77A6.77,6.77,0,1,1,13.82,7,6.77,6.77,0,0,1,7,13.77Zm0-.49A6.28,6.28,0,1,0,.76,7,6.28,6.28,0,0,0,7,13.28ZM7,10.69h0a.51.51,0,0,1-.29-.1l-.28-.22C6,10.1,5.75,9.91,5.5,9.7,3.75,8.23,3,6.8,3.42,5.46a2.14,2.14,0,0,1,.72-1.08A1.86,1.86,0,0,1,5.34,4a2.19,2.19,0,0,1,1.59.78A2.27,2.27,0,0,1,8.52,4a1.9,1.9,0,0,1,1.21.43,2.16,2.16,0,0,1,.72,1.09c.38,1.33-.34,2.76-2.09,4.24-.23.19-.47.38-.84.66l-.28.22A.51.51,0,0,1,7,10.69Zm0,0a.21.21,0,0,1-.21-.22A.21.21,0,0,1,7,10.26H7L7.26,10c.37-.28.6-.46.82-.65q2.46-2.07,2-3.8a1.77,1.77,0,0,0-.58-.87,1.49,1.49,0,0,0-.94-.33,1.84,1.84,0,0,0-1.41.81.22.22,0,0,1-.35,0,1.84,1.84,0,0,0-1.41-.81,1.49,1.49,0,0,0-.94.33,1.7,1.7,0,0,0-.58.87c-.33,1.14.31,2.42,2,3.8L6.6,10l.28.22H7a.21.21,0,0,1,.21.21A.21.21,0,0,1,7,10.69Z" transform="translate(-0.27 -0.23)"/></g><g class="cls-2"><g id="Palette_Nav_1" data-name="Palette/Nav/1"><rect id="Rectangle-Copy" class="cls-1" width="13.55" height="13.55"/></g></g></g></g></svg>