<?xml version="1.0" encoding="utf-8"?>
<!-- Generator: Adobe Illustrator 22.1.0, SVG Export Plug-In . SVG Version: 6.00 Build 0)  -->
<svg version="1.1" id="Layer_1" xmlns="http://www.w3.org/2000/svg" xmlns:xlink="http://www.w3.org/1999/xlink" x="0px" y="0px"
	 viewBox="0 0 40 40" style="enable-background:new 0 0 40 40;" xml:space="preserve">
<style type="text/css">
	.st0{fill:#80C342;}
	.st1{filter:url(#Adobe_OpacityMaskFilter);}
	.st2{fill:#FFFFFF;}
	.st3{mask:url(#mask-2_1_);}
</style>
<title>Icon/Products/LifeInsurance/Outline</title>
<desc>Created with Sketch.</desc>
<g id="Atoms">
	<g id="Icon_x2F_Products_x2F_LifeInsurance_x2F_Outline">
		<g id="Mask">
			<path id="path-1_1_" class="st0" d="M20,40C9,40,0,31,0,20S9,0,20,0s20,9,20,20S31,40,20,40z M20,38.5c10.2,0,18.5-8.3,18.5-18.5
				S30.2,1.5,20,1.5S1.5,9.8,1.5,20S9.8,38.5,20,38.5z M19.7,30.9h-0.1c-0.3,0-0.6-0.1-0.9-0.3L17.9,30c-1-0.8-1.8-1.4-2.5-2
				c-5.2-4.4-7.3-8.6-6.2-12.5c0.4-1.3,1.1-2.4,2.1-3.2c1-0.8,2.3-1.3,3.6-1.3c1.7,0,3.4,0.9,4.7,2.3c1.3-1.4,3-2.3,4.7-2.3
				c1.3,0,2.6,0.4,3.6,1.3c1,0.8,1.8,2,2.1,3.2c1.1,3.9-1,8.2-6.2,12.5c-0.7,0.6-1.4,1.1-2.5,2l-0.8,0.6
				C20.3,30.8,20,30.9,19.7,30.9z M19.7,30.9c-0.3,0-0.6-0.3-0.6-0.6c0-0.3,0.3-0.6,0.6-0.6c0,0,0.1,0,0.1,0l0.8-0.6
				c1.1-0.8,1.8-1.4,2.4-1.9c4.8-4.1,6.7-7.8,5.8-11.2c-0.3-1-0.9-1.9-1.7-2.6c-0.8-0.6-1.8-1-2.8-1c-1.5,0-3.1,0.9-4.2,2.4
				c-0.3,0.3-0.8,0.3-1,0c-1.1-1.5-2.7-2.4-4.2-2.4c-1,0-2,0.3-2.8,1c-0.8,0.7-1.4,1.6-1.7,2.6c-1,3.4,0.9,7.1,5.8,11.2
				c0.7,0.6,1.4,1.2,2.4,1.9l0.8,0.6c0,0,0.1,0,0.1,0h0.1c0.3,0,0.6,0.3,0.6,0.6C20.4,30.6,20.1,30.9,19.7,30.9z"/>
		</g>
		<defs>
			<filter id="Adobe_OpacityMaskFilter" filterUnits="userSpaceOnUse" x="0" y="0" width="40" height="40">
				<feColorMatrix  type="matrix" values="1 0 0 0 0  0 1 0 0 0  0 0 1 0 0  0 0 0 1 0"/>
			</filter>
		</defs>
		<mask maskUnits="userSpaceOnUse" x="0" y="0" width="40" height="40" id="mask-2_1_">
			<g class="st1">
				<path id="path-1_2_" class="st2" d="M20,40C9,40,0,31,0,20S9,0,20,0s20,9,20,20S31,40,20,40z M20,38.5
					c10.2,0,18.5-8.3,18.5-18.5S30.2,1.5,20,1.5S1.5,9.8,1.5,20S9.8,38.5,20,38.5z M19.7,30.9h-0.1c-0.3,0-0.6-0.1-0.9-0.3L17.9,30
					c-1-0.8-1.8-1.4-2.5-2c-5.2-4.4-7.3-8.6-6.2-12.5c0.4-1.3,1.1-2.4,2.1-3.2c1-0.8,2.3-1.3,3.6-1.3c1.7,0,3.4,0.9,4.7,2.3
					c1.3-1.4,3-2.3,4.7-2.3c1.3,0,2.6,0.4,3.6,1.3c1,0.8,1.8,2,2.1,3.2c1.1,3.9-1,8.2-6.2,12.5c-0.7,0.6-1.4,1.1-2.5,2l-0.8,0.6
					C20.3,30.8,20,30.9,19.7,30.9z M19.7,30.9c-0.3,0-0.6-0.3-0.6-0.6c0-0.3,0.3-0.6,0.6-0.6c0,0,0.1,0,0.1,0l0.8-0.6
					c1.1-0.8,1.8-1.4,2.4-1.9c4.8-4.1,6.7-7.8,5.8-11.2c-0.3-1-0.9-1.9-1.7-2.6c-0.8-0.6-1.8-1-2.8-1c-1.5,0-3.1,0.9-4.2,2.4
					c-0.3,0.3-0.8,0.3-1,0c-1.1-1.5-2.7-2.4-4.2-2.4c-1,0-2,0.3-2.8,1c-0.8,0.7-1.4,1.6-1.7,2.6c-1,3.4,0.9,7.1,5.8,11.2
					c0.7,0.6,1.4,1.2,2.4,1.9l0.8,0.6c0,0,0.1,0,0.1,0h0.1c0.3,0,0.6,0.3,0.6,0.6C20.4,30.6,20.1,30.9,19.7,30.9z"/>
			</g>
		</mask>
		<g id="Palette_x2F_Nav_x2F_1" class="st3">
			<rect id="Rectangle-Copy" y="0" class="st0" width="40" height="40"/>
		</g>
	</g>
</g>
</svg>
