<svg id="Layer_2" data-name="Layer 2" xmlns="http://www.w3.org/2000/svg" viewBox="0 0 13.26 13.26"><defs><style>.cls-1{fill:#fff;}</style></defs><title>Life-white-3</title><path class="cls-1" d="M7,13.68a6.63,6.63,0,1,1,6.63-6.63A6.64,6.64,0,0,1,7,13.68ZM7,1.45a5.6,5.6,0,1,0,5.6,5.6A5.6,5.6,0,0,0,7,1.45Zm-.13,9.34a.72.72,0,0,1-.44-.16l-.26-.2-.8-.63c-1.74-1.47-2.43-2.91-2-4.27A2.31,2.31,0,0,1,4.1,4.37a2.1,2.1,0,0,1,1.3-.46,2.28,2.28,0,0,1,1.5.61,2.34,2.34,0,0,1,1.48-.61,2.09,2.09,0,0,1,1.32.47,2.28,2.28,0,0,1,.76,1.16c.39,1.36-.3,2.79-2.05,4.26-.22.19-.44.36-.79.63l-.27.2a.7.7,0,0,1-.44.16ZM5.41,4.87a1.09,1.09,0,0,0-.7.25,1.3,1.3,0,0,0-.45.68C4,6.76,4.57,7.86,6,9.06l.77.61.13.1L7,9.67c.34-.26.55-.43.76-.61,1.43-1.2,2-2.3,1.75-3.26a1.41,1.41,0,0,0-.45-.68,1.12,1.12,0,0,0-.7-.24,1.44,1.44,0,0,0-1.1.64.47.47,0,0,1-.39.2.46.46,0,0,1-.39-.2A1.51,1.51,0,0,0,5.41,4.87Z" transform="translate(-0.37 -0.42)"/></svg>