<svg baseProfile="tiny" xmlns="http://www.w3.org/2000/svg" viewBox="0 0 20 20"><path fill-rule="evenodd" d="M4.1 4.5H3c-.3 0-.5.2-.5.6v1.1c0 .3.2.6.5.6h1.1c.3 0 .5-.2.5-.6V5.1c0-.4-.2-.6-.5-.6zm3.2 1.7H17c.3 0 .5-.2.5-.5s-.2-.6-.5-.6H7.3c-.3 0-.5.2-.5.5s.2.6.5.6zM4.1 8.9H3c-.3 0-.5.2-.5.6v1.1c0 .3.2.6.5.6h1.1c.3 0 .5-.2.5-.6V9.5c0-.4-.2-.6-.5-.6zm12.9.6H7.3c-.3 0-.5.2-.5.5s.2.5.5.5H17c.3 0 .5-.2.5-.5s-.2-.5-.5-.5zM4.1 13.3H3c-.3 0-.5.2-.5.6V15c0 .3.2.5.5.5h1.1c.3 0 .5-.2.5-.5v-1.1c0-.4-.2-.6-.5-.6zm12.9.5H7.3c-.3 0-.5.2-.5.6 0 .3.2.6.5.6H17c.3 0 .5-.2.5-.6 0-.3-.2-.6-.5-.6z" fill="#ffffff"></path></svg>