<?xml version="1.0" encoding="UTF-8"?>
<svg width="18px" height="14px" viewBox="0 0 18 14" version="1.1" xmlns="http://www.w3.org/2000/svg" xmlns:xlink="http://www.w3.org/1999/xlink">
    <!-- Generator: Sketch 52.5 (67469) - http://www.bohemiancoding.com/sketch -->
    <title>Shape</title>
    <desc>Created with Sketch.</desc>
    <g id="Page-1" stroke="none" stroke-width="1" fill="none" fill-rule="evenodd">
        <g id="data_image_svg+xml;…-(3)" fill="#FFFFFF" fill-rule="nonzero">
            <path d="M14.3,9.5 L14.3,1.5 C14.3,0.9 13.8,0.5 13.2,0.5 L1.6,0.5 C1,0.5 0.5,0.9 0.5,1.5 L0.5,9.5 C0.5,10.1 1,10.5 1.6,10.5 L13.3,10.5 C13.8,10.5 14.3,10.1 14.3,9.5 Z M12.7,9.5 L2.1,9.5 C1.8,9.5 1.6,9.3 1.6,9 L1.6,2 C1.6,1.7 1.8,1.5 2.1,1.5 L12.7,1.5 C13,1.5 13.2,1.7 13.2,2 L13.2,9 C13.2,9.3 13,9.5 12.7,9.5 Z M16.4,3.5 L14.8,3.5 C15.1,3.5 15.3,3.7 15.3,4 L15.3,4.5 L15.8,4.5 C16.1,4.5 16.3,4.7 16.3,5 L16.3,12 C16.3,12.3 16.1,12.5 15.8,12.5 L5.3,12.5 C5,12.5 4.8,12.3 4.8,12 L4.8,11.5 L3.7,11.5 L3.7,12.5 C3.7,13.1 4.2,13.5 4.8,13.5 L16.5,13.5 C17.1,13.5 17.6,13.1 17.6,12.5 L17.6,4.5 C17.5,3.9 17,3.5 16.4,3.5 Z M6.9,4.4 C6.9,4.1 7.3,3.8 7.7,3.8 C8.4,3.8 8.9,4.2 8.9,4.2 L9.3,3.5 C9.3,3.5 8.8,3.1 7.9,3 L7.9,2.5 L7.4,2.5 L7.4,3.1 C6.5,3.2 5.9,3.8 5.9,4.4 C5.9,5.8 8.5,5.7 8.5,6.5 C8.5,6.9 8.1,7.1 7.7,7.1 C6.9,7.1 6.3,6.6 6.3,6.6 L5.8,7.2 C5.8,7.2 6.4,7.7 7.4,7.8 L7.4,8.4 L8,8.4 L8,7.8 C8.9,7.7 9.5,7.1 9.5,6.5 C9.5,5.1 6.9,5.2 6.9,4.4 Z" id="Shape"></path>
        </g>
    </g>
</svg>