<?xml version="1.0" encoding="UTF-8"?>
<svg width="13px" height="16px" viewBox="0 0 13 16" version="1.1" xmlns="http://www.w3.org/2000/svg" xmlns:xlink="http://www.w3.org/1999/xlink">
    <!-- Generator: Sketch 52.5 (67469) - http://www.bohemiancoding.com/sketch -->
    <title>Shape</title>
    <desc>Created with Sketch.</desc>
    <g id="Page-1" stroke="none" stroke-width="1" fill="none" fill-rule="evenodd">
        <g id="data_image_svg+xml;…" fill="#FFFFFF">
            <path d="M7.8,2.4 L1.4,2.4 C0.6,2.4 0,3 0,3.8 L0,14.1 C0,14.9 0.6,15.5 1.4,15.5 L7.9,15.5 C8.7,15.5 9.3,14.9 9.3,14.1 L9.3,3.8 C9.2,3 8.6,2.4 7.8,2.4 Z M8.3,14.1 C8.3,14.4 8.1,14.6 7.8,14.6 L1.4,14.6 C1.1,14.6 0.9,14.4 0.9,14.1 L0.9,3.8 C0.9,3.5 1.1,3.3 1.4,3.3 L7.9,3.3 C8.2,3.3 8.4,3.5 8.4,3.8 L8.4,14.1 L8.3,14.1 Z M10.6,0.5 L4.2,0.5 C3.6,0.5 3,0.9 2.9,1.4 L10.7,1.4 C11,1.4 11.2,1.6 11.2,1.9 L11.2,12.2 C11.2,12.5 11,12.7 10.7,12.7 L10.2,12.7 L10.2,13.6 L10.7,13.6 C11.5,13.6 12.1,13 12.1,12.2 L12.1,1.9 C12,1.1 11.4,0.5 10.6,0.5 Z" id="Shape"></path>
        </g>
    </g>
</svg>