<?xml version="1.0" encoding="UTF-8"?>
<svg width="12px" height="16px" viewBox="0 0 12 16" version="1.1" xmlns="http://www.w3.org/2000/svg" xmlns:xlink="http://www.w3.org/1999/xlink">
    <!-- Generator: Sketch 52.5 (67469) - http://www.bohemiancoding.com/sketch -->
    <title>Shape</title>
    <desc>Created with Sketch.</desc>
    <g id="Page-1" stroke="none" stroke-width="1" fill="none" fill-rule="evenodd">
        <g id="request-statment" fill="#FFFFFF">
            <path d="M9.2,8.9 L2.8,8.9 C2.5,8.9 2.3,9.1 2.3,9.4 C2.3,9.7 2.5,9.9 2.8,9.9 L9.2,9.9 C9.5,9.9 9.7,9.7 9.7,9.4 C9.7,9.1 9.5,8.9 9.2,8.9 Z M2.8,4.3 L6.5,4.3 C6.8,4.3 7,4.1 7,3.8 C7,3.5 6.8,3.3 6.5,3.3 L2.8,3.3 C2.5,3.3 2.3,3.5 2.3,3.8 C2.3,4 2.5,4.3 2.8,4.3 Z M10.6,0.5 L1.4,0.5 C0.9,0.5 0.5,0.9 0.5,1.4 L0.5,14.5 C0.5,15 0.9,15.4 1.4,15.4 L10.6,15.4 C11.1,15.4 11.5,15 11.5,14.5 L11.5,1.4 C11.5,0.9 11.1,0.5 10.6,0.5 Z M10.6,14.1 C10.6,14.4 10.4,14.6 10.1,14.6 L1.9,14.6 C1.6,14.6 1.4,14.4 1.4,14.1 L1.4,1.9 C1.4,1.6 1.6,1.4 1.9,1.4 L10.1,1.4 C10.4,1.4 10.6,1.6 10.6,1.9 L10.6,14.1 Z M9.2,6.1 L2.8,6.1 C2.5,6.1 2.3,6.3 2.3,6.6 C2.3,6.9 2.5,7.1 2.8,7.1 L9.2,7.1 C9.5,7.1 9.7,6.9 9.7,6.6 C9.7,6.3 9.5,6.1 9.2,6.1 Z M9.2,11.8 L2.8,11.8 C2.5,11.8 2.3,12 2.3,12.3 C2.3,12.6 2.5,12.8 2.8,12.8 L9.2,12.8 C9.5,12.8 9.7,12.6 9.7,12.3 C9.7,12 9.5,11.8 9.2,11.8 Z" id="Shape"></path>
        </g>
    </g>
</svg>