<svg id="Layer_1" data-name="Layer 1" xmlns="http://www.w3.org/2000/svg" viewBox="0 0 13.63 13.42"><defs><style>.cls-1{fill:#fff;}</style></defs><title>SWealth-white-03</title><path class="cls-1" d="M7.14,11.59A2.55,2.55,0,0,1,5.61,11l-.68,1a3.59,3.59,0,0,0,1.88.76v1h1V12.75a1.91,1.91,0,0,0,1.67-2c0-2-2.81-1.89-2.81-2.87,0-.46.28-.65.79-.65a1.61,1.61,0,0,1,1.16.52l.79-.87a2.65,2.65,0,0,0-1.6-.85V5h-1v1A1.86,1.86,0,0,0,5.19,8C5.19,9.82,8,9.8,8,10.86,8,11.36,7.74,11.59,7.14,11.59Z" transform="translate(-0.2 -0.41)"/><path class="cls-1" d="M10,9.39a.59.59,0,1,1,0-1.17h1.16a1.25,1.25,0,0,0,.43-.07,1.45,1.45,0,0,0,.91-.73,1.53,1.53,0,0,0-1.34-2.27,1.68,1.68,0,0,0-.44.07h-.1a1.69,1.69,0,0,0-.36.2.59.59,0,0,1-.33.11.59.59,0,0,1-.37-1A2.82,2.82,0,0,1,10,4.2,2.06,2.06,0,0,0,6.36,2.42l.21.2a.6.6,0,0,1,0,.83.62.62,0,0,1-.41.16.6.6,0,0,1-.42-.18,1.08,1.08,0,0,0-.32-.24l-.07,0A1.31,1.31,0,0,0,4.92,3l-.07-.27L4.78,3A1.34,1.34,0,0,0,3.45,4.36v.12l0,.31A.27.27,0,0,1,3.41,5a.25.25,0,0,1-.2.09H2.82A1.56,1.56,0,0,0,1.74,7.72a1.59,1.59,0,0,0,1.09.5H4.45a.59.59,0,0,1,0,1.17H2.82A2.74,2.74,0,0,1,2.33,4s0-.18,0-.18l0-.12s.06-.19.08-.23l.1-.21.05-.1.13-.2.14-.18L3,2.66l.07-.08.18-.15.19-.14.19-.12.22-.1L4.05,2l.25-.06.19,0a1.57,1.57,0,0,1,.29,0H5.1l.2,0A3.23,3.23,0,0,1,8,.41a3.79,3.79,0,0,1,.67.06A3.24,3.24,0,0,1,11.26,4a2.71,2.71,0,0,1-.14,5.41Z" transform="translate(-0.2 -0.41)"/></svg>