<?xml version="1.0" encoding="UTF-8"?>
<svg width="14px" height="20px" viewBox="0 0 14 20" version="1.1" xmlns="http://www.w3.org/2000/svg" xmlns:xlink="http://www.w3.org/1999/xlink">
    <!-- Generator: Sketch 52.5 (67469) - http://www.bohemiancoding.com/sketch -->
    <title>SWealth-white</title>
    <desc>Created with Sketch.</desc>
    <g id="Page-1" stroke="none" stroke-width="1" fill="none" fill-rule="evenodd">
        <g id="SWealth-white" fill="#FFFFFF">
            <path d="M6.74,8.05 C6.37143486,8.02363428 6.02099412,7.87995357 5.74,7.64 L5.27,8.35 C5.64297511,8.64044641 6.08986389,8.82058762 6.56,8.87 L6.56,9.58 L7.27,9.58 L7.27,8.84 C7.9259844,8.73410445 8.39878175,8.15385315 8.37,7.49 C8.37,6.14 6.44,6.2 6.44,5.49 C6.44,5.17 6.63,5.04 6.98,5.04 C7.28326475,5.05170086 7.57011691,5.18078434 7.78,5.4 L8.32,4.8 C8.03330684,4.48819448 7.64877564,4.28358155 7.23,4.22 L7.23,3.55 L6.52,3.55 L6.52,4.26 C5.86855733,4.34694555 5.38881989,4.91312216 5.41,5.57 C5.41,6.84 7.34,6.82 7.34,7.57 C7.34,7.89 7.15,8.05 6.74,8.05 Z" id="Path"></path>
            <path d="M2.41,9.62 L4.06,9.62 C4.14752144,9.62 4.23145823,9.58523224 4.29334524,9.52334524 C4.35523224,9.46145823 4.39,9.37752144 4.39,9.29 C4.39004231,9.20336936 4.35495889,9.12042315 4.29276671,9.06011558 C4.23057453,8.99980802 4.14658834,8.96729278 4.06,8.97 L2.41,8.97 C1.37722752,8.97 0.54,8.13277248 0.54,7.1 C0.54,6.06722752 1.37722752,5.23 2.41,5.23 L2.8,5.23 L2.8,4.88 L2.8,4.73 C2.81065836,3.85467528 3.51475931,3.14614603 4.39,3.13 L4.58,3.13 C4.75757482,3.14923688 4.93028656,3.20003445 5.09,3.28 L5.17,3.28 C5.31277772,3.36218905 5.44393749,3.46308118 5.56,3.58 C5.63360453,3.68862918 5.76457446,3.74332926 5.8935762,3.71931934 C6.02257795,3.69530943 6.12509791,3.59715202 6.15469126,3.46931556 C6.18428461,3.34147911 6.13532787,3.20825577 6.03,3.13 C5.91306488,3.01228492 5.78589782,2.90519687 5.65,2.81 C6.20228475,1.61706494 7.61706494,1.09771525 8.81,1.65 C10.0029351,2.20228475 10.5222847,3.61706494 9.97,4.81 C9.77006847,4.88730919 9.58165452,4.99160977 9.41,5.12 C9.34366005,5.17301885 9.30111581,5.2502335 9.29173759,5.33463751 C9.28235936,5.41904152 9.30691639,5.50371186 9.36,5.57 C9.46001353,5.70709436 9.65166746,5.73829384 9.79,5.64 C9.94665325,5.52932667 10.1184122,5.44176328 10.3,5.38 C10.9931418,5.16875174 11.7457275,5.38399121 12.2223531,5.92979287 C12.6989787,6.47559453 12.8108827,7.25031438 12.5081929,7.90868381 C12.2055032,8.56705324 11.5445893,8.98646489 10.82,8.98 L9.68,8.98 C9.50326888,8.98 9.36,9.12326888 9.36,9.3 C9.35729278,9.38658834 9.38980802,9.47057453 9.45011558,9.53276671 C9.51042315,9.59495889 9.59336936,9.63004231 9.68,9.63 L10.87,9.63 C12.2507119,9.63 13.37,8.51071187 13.37,7.13 C13.37,5.74928813 12.2507119,4.63 10.87,4.63 L10.69,4.63 C11.1122186,3.12061153 10.3013813,1.54058067 8.82895143,1.00348438 C7.35652158,0.466388085 5.71878998,1.15325768 5.07,2.58 L4.93,2.58 L4.82,2.58 L4.11,2.58 L3.96,2.58 L3.88,2.58 L3.75,2.58 L3.66,2.58 L3.58,2.73 L3.46,2.73 L3.35,2.73 L3.27,2.73 L3.17,2.8 L3.09,2.85 L3,2.92 L2.92,2.98 L2.84,3.06 L2.77,3.13 L2.69,3.22 L2.63,3.29 L2.58,3.47 L2.52,3.55 L2.46,3.64 L2.46,3.73 C2.447501,3.76842174 2.43072937,3.80531934 2.41,3.84 L2.41,3.93 C2.41412869,3.96655044 2.41412869,4.00344956 2.41,4.04 L2.41,4.14 C2.41388911,4.17656354 2.41388911,4.21343646 2.41,4.25 L2.41,4.35 C2.41,4.35 2.41,4.43 2.41,4.47 C2.41,4.51 2.41,4.54 2.41,4.57 C2.41,4.6 2.41,4.57 2.41,4.57 C1.14781907,4.78260245 0.245505749,5.90762323 0.311973923,7.18585736 C0.378442098,8.46409148 1.39257551,9.48945704 2.67,9.57 L2.41,9.62 Z" id="Path"></path>
            <path d="M8.5,19.14 C8.68225397,19.14 8.83,18.992254 8.83,18.81 L8.83,9.45 C8.83,9.26774603 8.68225397,9.12 8.5,9.12 C8.31774603,9.12 8.17,9.26774603 8.17,9.45 L8.17,10.54 L5.58,10.54 L5.58,9.45 C5.58,9.26774603 5.43225397,9.12 5.25,9.12 C5.16336936,9.11995769 5.08042315,9.15504111 5.02011558,9.21723329 C4.95980802,9.27942547 4.92729278,9.36341166 4.93,9.45 L4.93,18.81 C4.92729278,18.8965883 4.95980802,18.9805745 5.02011558,19.0427667 C5.08042315,19.1049589 5.16336936,19.1400423 5.25,19.14 C5.43225397,19.14 5.58,18.992254 5.58,18.81 L5.58,17.73 L8.17,17.73 L8.17,18.82 C8.17540662,18.9983372 8.32158091,19.1400819 8.5,19.14 Z M5.58,13.37 L8.17,13.37 L8.17,14.89 L5.58,14.89 L5.58,13.37 Z M8.19,11.19 L8.19,12.73 L5.58,12.73 L5.58,11.19 L8.19,11.19 Z M5.58,17.07 L5.58,15.54 L8.17,15.54 L8.17,17.07 L5.58,17.07 Z" id="Shape" fill-rule="nonzero"></path>
        </g>
    </g>
</svg>