<?xml version="1.0" encoding="utf-8"?>
<!-- Generator: Adobe Illustrator 22.1.0, SVG Export Plug-In . SVG Version: 6.00 Build 0)  -->
<svg version="1.1" id="Layer_1" xmlns="http://www.w3.org/2000/svg" xmlns:xlink="http://www.w3.org/1999/xlink" x="0px" y="0px"
	 viewBox="0 0 80 77.6" style="enable-background:new 0 0 80 77.6;" xml:space="preserve">
<style type="text/css">
	.st0{fill:#80C342;}
</style>
<title>51_startup_ladder_sucess_money</title>
<path class="st0" d="M47.5,77.5c0.8,0,1.5-0.7,1.5-1.5V33c0-0.8-0.7-1.5-1.5-1.5S46,32.2,46,33v5H34v-5c0-0.8-0.7-1.5-1.5-1.5
	S31,32.2,31,33v43c0,0.8,0.7,1.5,1.5,1.5S34,76.8,34,76v-5h12v5C46,76.8,46.7,77.5,47.5,77.5z M34,51h12v7H34V51z M46,41v7H34v-7H46
	z M34,68v-7h12v7H34z"/>
<path class="st0" d="M39.6,27.7c-1.1-0.1-2.1-0.5-3-1.1l-1.3,2c1,0.8,2.3,1.3,3.6,1.5v2h2v-2.1c1.9-0.3,3.3-1.9,3.2-3.8
	c0-3.8-5.4-3.6-5.4-5.5c0-0.9,0.5-1.3,1.5-1.3c0.9,0,1.7,0.4,2.2,1l1.5-1.7c-0.8-0.9-1.9-1.5-3.1-1.6v-2h-2v2
	c-1.8,0.2-3.2,1.8-3.1,3.7c0,3.6,5.4,3.5,5.4,5.6C41.3,27.2,40.8,27.7,39.6,27.7z"/>
<path class="st0" d="M19.3,43H27c0.8,0,1.5-0.7,1.5-1.5S27.8,40,27,40h-7.7c-4.8-0.2-8.5-4.2-8.4-8.9c0.2-4.6,3.8-8.2,8.4-8.4l0,0
	h1.8L21,21.1c0-0.2,0-0.4,0-0.6c0-4.1,3.4-7.5,7.5-7.5c0.3,0,0.5,0,0.8,0h0.1c0.8,0.1,1.6,0.3,2.3,0.7l0.4,0.2
	c0.7,0.4,1.3,0.8,1.8,1.4c0.6,0.6,1.5,0.6,2.1,0c0.6-0.6,0.6-1.5,0-2.1c-0.5-0.5-1.1-1-1.8-1.5c2.9-5.3,9.6-7.3,14.9-4.4
	c4.7,2.6,6.9,8.3,5.1,13.4c-0.9,0.4-1.8,0.8-2.6,1.4c-0.7,0.5-0.8,1.5-0.3,2.1c0.5,0.6,1.4,0.8,2,0.3c0.7-0.5,1.5-0.9,2.3-1.2h0.1
	h0.1c4.5-1.3,9.2,1.2,10.6,5.7c1.3,4.5-1.2,9.2-5.7,10.6c-0.8,0.2-1.6,0.3-2.4,0.3H53c-0.8,0-1.5,0.7-1.5,1.5S52.2,43,53,43h5.5
	C64.9,43,70,37.9,70,31.5S64.9,20,58.5,20h-0.8c1.6-7.6-3.3-15-10.8-16.6c-6-1.3-12.2,1.6-15.2,7c-0.2-0.1-0.4-0.1-0.6-0.2h-0.2
	l-0.5-0.1l-0.5-0.1h-0.4c-0.3,0-0.6,0-0.9,0s-0.7,0-1,0.1l-0.3,0.1c-0.2,0-0.5,0.1-0.7,0.1l-0.4,0.1l-0.6,0.1l-0.4,0.1l-0.5,0.2
	l-0.4,0.2l-0.5,0.2l-0.4,0.2l-0.5,0.3l-0.4,0.3l-0.4,0.3l-0.3,0.3L21.3,13L21,13.4l-0.4,0.4l-0.3,0.4L20,14.5l-0.3,0.4l-0.3,0.4
	l-0.2,0.4c-0.1,0.2-0.2,0.3-0.2,0.5l-0.2,0.4c-0.1,0.2-0.1,0.3-0.2,0.5s-0.1,0.3-0.1,0.5s-0.1,0.4-0.1,0.5s-0.1,0.3-0.1,0.5
	s-0.1,0.4-0.1,0.5s0,0.3-0.1,0.5s0,0.1,0,0.2c-6.4,0.9-10.8,6.9-9.8,13.3C9.2,38.6,13.8,42.7,19.3,43z"/>
</svg>
