<?xml version="1.0" encoding="UTF-8"?>
<svg width="62px" height="75px" viewBox="0 0 62 75" version="1.1" xmlns="http://www.w3.org/2000/svg" xmlns:xlink="http://www.w3.org/1999/xlink">
    <!-- Generator: Sketch 52.5 (67469) - http://www.bohemiancoding.com/sketch -->
    <title>SWealth-icon</title>
    <desc>Created with Sketch.</desc>
    <g id="Page-1" stroke="none" stroke-width="1" fill="none" fill-rule="evenodd">
        <g id="SWealth-icon" fill="#80C342">
            <path d="M39.5,74.5 C40.3,74.5 41,73.8 41,73 L41,30 C41,29.2 40.3,28.5 39.5,28.5 C38.7,28.5 38,29.2 38,30 L38,35 L26,35 L26,30 C26,29.2 25.3,28.5 24.5,28.5 C23.7,28.5 23,29.2 23,30 L23,73 C23,73.8 23.7,74.5 24.5,74.5 C25.3,74.5 26,73.8 26,73 L26,68 L38,68 L38,73 C38,73.8 38.7,74.5 39.5,74.5 Z M26,48 L38,48 L38,55 L26,55 L26,48 Z M38,38 L38,45 L26,45 L26,38 L38,38 Z M26,65 L26,58 L38,58 L38,65 L26,65 Z" id="Shape" fill-rule="nonzero"></path>
            <path d="M31.6,24.7 C30.5,24.6 29.5,24.2 28.6,23.6 L27.3,25.6 C28.3,26.4 29.6,26.9 30.9,27.1 L30.9,29.1 L32.9,29.1 L32.9,27 C34.8,26.7 36.2,25.1 36.1,23.2 C36.1,19.4 30.7,19.6 30.7,17.7 C30.7,16.8 31.2,16.4 32.2,16.4 C33.1,16.4 33.9,16.8 34.4,17.4 L35.9,15.7 C35.1,14.8 34,14.2 32.8,14.1 L32.8,12.1 L30.8,12.1 L30.8,14.1 C29,14.3 27.6,15.9 27.7,17.8 C27.7,21.4 33.1,21.3 33.1,23.4 C33.3,24.2 32.8,24.7 31.6,24.7 Z" id="Path"></path>
            <path d="M11.3,40 L19,40 C19.8,40 20.5,39.3 20.5,38.5 C20.5,37.7 19.8,37 19,37 L11.3,37 C6.5,36.8 2.8,32.8 2.9,28.1 C3.1,23.5 6.7,19.9 11.3,19.7 L13.1,19.7 L13,18.1 C13,17.9 13,17.7 13,17.5 C13,13.4 16.4,10 20.5,10 C20.8,10 21,10 21.3,10 L21.4,10 C22.2,10.1 23,10.3 23.7,10.7 L24.1,10.9 C24.8,11.3 25.4,11.7 25.9,12.3 C26.5,12.9 27.4,12.9 28,12.3 C28.6,11.7 28.6,10.8 28,10.2 C27.5,9.7 26.9,9.2 26.2,8.7 C29.1,3.4 35.8,1.4 41.1,4.3 C45.8,6.9 48,12.6 46.2,17.7 C45.3,18.1 44.4,18.5 43.6,19.1 C42.9,19.6 42.8,20.6 43.3,21.2 C43.8,21.8 44.7,22 45.3,21.5 C46,21 46.8,20.6 47.6,20.3 L47.7,20.3 L47.8,20.3 C52.3,19 57,21.5 58.4,26 C59.7,30.5 57.2,35.2 52.7,36.6 C51.9,36.8 51.1,36.9 50.3,36.9 L45,36.9 C44.2,36.9 43.5,37.6 43.5,38.4 C43.5,39.2 44.2,40 45,40 L50.5,40 C56.9,40 62,34.9 62,28.5 C62,22.1 56.9,17 50.5,17 L49.7,17 C51.3,9.4 46.4,2 38.9,0.4 C32.9,-0.9 26.7,2 23.7,7.4 C23.5,7.3 23.3,7.3 23.1,7.2 L22.9,7.2 L22.4,7.1 L21.9,7 L21.5,7 C21.2,7 20.9,7 20.6,7 C20.3,7 19.9,7 19.6,7.1 L19.3,7.2 C19.1,7.2 18.8,7.3 18.6,7.3 L18.2,7.4 L17.6,7.5 L17.2,7.6 L16.7,7.8 L16.3,8 L15.8,8.2 L15.4,8.4 L14.9,8.7 L14.5,9 L14.1,9.3 L13.8,9.6 L13.3,10 L13,10.4 L12.6,10.8 L12.3,11.2 L12,11.5 L11.7,11.9 L11.4,12.3 L11.2,12.7 C11.1,12.9 11,13 11,13.2 L10.8,13.6 C10.7,13.8 10.7,13.9 10.6,14.1 C10.5,14.3 10.5,14.4 10.5,14.6 C10.5,14.8 10.4,15 10.4,15.1 C10.4,15.2 10.3,15.4 10.3,15.6 C10.3,15.8 10.2,16 10.2,16.1 C10.2,16.2 10.2,16.4 10.1,16.6 C10,16.8 10.1,16.7 10.1,16.8 C3.7,17.7 -0.7,23.7 0.3,30.1 C1.2,35.6 5.8,39.7 11.3,40 Z" id="Path"></path>
        </g>
    </g>
</svg>