<?xml version="1.0" encoding="UTF-8"?>
<svg width="14px" height="14px" viewBox="0 0 14 14" version="1.1" xmlns="http://www.w3.org/2000/svg" xmlns:xlink="http://www.w3.org/1999/xlink">
    <!-- Generator: Sketch 52.5 (67469) - http://www.bohemiancoding.com/sketch -->
    <title>SWealth-white-03</title>
    <desc>Created with Sketch.</desc>
    <g id="Page-1" stroke="none" stroke-width="1" fill="none" fill-rule="evenodd">
        <g id="SWealth-white-03" fill="#FFFFFF">
            <path d="M6.94,11.18 C6.37895072,11.1571517 5.84113028,10.9497569 5.41,10.59 L4.73,11.59 C5.27061157,12.0187329 5.92332019,12.2825938 6.61,12.35 L6.61,13.35 L7.61,13.35 L7.61,12.34 C8.60556403,12.2154384 9.33503925,11.3418154 9.28,10.34 C9.28,8.34 6.47,8.45 6.47,7.47 C6.47,7.01 6.75,6.82 7.26,6.82 C7.70162469,6.82688162 8.12102917,7.01489053 8.42,7.34 L9.21,6.47 C8.79309386,6.00748776 8.22663315,5.70655551 7.61,5.62 L7.61,4.59 L6.61,4.59 L6.61,5.59 C5.62145939,5.71511786 4.90711359,6.59702625 4.99,7.59 C4.99,9.41 7.8,9.39 7.8,10.45 C7.8,10.95 7.54,11.18 6.94,11.18 Z" id="Path"></path>
            <path d="M9.8,8.98 C9.57273799,9.00977659 9.34879671,8.90523859 9.22568514,8.71190415 C9.10257356,8.51856971 9.10257356,8.27143029 9.22568514,8.07809585 C9.34879671,7.88476141 9.57273799,7.78022341 9.8,7.81 L10.96,7.81 C11.1063258,7.81201699 11.2518692,7.78832388 11.39,7.74 C11.7821609,7.6348066 12.1122514,7.37000869 12.3,7.01 C12.5619715,6.53592329 12.553765,5.95866866 12.2784227,5.49223064 C12.0030805,5.02579261 11.5016435,4.73969604 10.96,4.74 C10.8108761,4.74369572 10.6629085,4.76723601 10.52,4.81 L10.42,4.81 C10.2922955,4.86174171 10.1713981,4.92890693 10.06,5.01 C9.96355413,5.07899707 9.84855493,5.11733013 9.73,5.12 C9.50294988,5.09989873 9.30778864,4.95080846 9.22869206,4.73703394 C9.14959549,4.52325941 9.20071421,4.28304556 9.36,4.12 C9.49556373,3.995926 9.64293112,3.88540047 9.8,3.79 C10.0677412,2.83288227 9.61394007,1.82106548 8.72111391,1.38446368 C7.82828776,0.947861878 6.75103191,1.21097499 6.16,2.01 L6.37,2.21 C6.5922265,2.44204201 6.5922265,2.80795799 6.37,3.04 C6.25749861,3.14167808 6.11163455,3.19860065 5.96,3.2 C5.80173844,3.19774577 5.65077828,3.13304856 5.54,3.02 C5.44920791,2.92077248 5.3406802,2.83937671 5.22,2.78 L5.15,2.78 C5.01929614,2.69125611 4.87361758,2.62688651 4.72,2.59 L4.65,2.32 L4.58,2.59 C4.22285427,2.59262541 3.88153447,2.73771852 3.63181951,2.99306614 C3.38210456,3.24841377 3.24465967,3.59288454 3.25,3.95 L3.25,4.07 L3.25,4.38 C3.26612637,4.452522 3.25165734,4.52848442 3.21,4.59 C3.16075276,4.64920184 3.08696992,4.68240412 3.01,4.68 L2.62,4.68 C2.00741211,4.70134235 1.46409352,5.07945126 1.23125157,5.64646452 C0.998409621,6.21347779 1.11920095,6.86430103 1.54,7.31 C1.82414581,7.61254659 2.21533275,7.79199014 2.63,7.81 L4.25,7.81 C4.54370895,7.84848267 4.76335145,8.09878072 4.76335145,8.395 C4.76335145,8.69121928 4.54370895,8.94151733 4.25,8.98 L2.62,8.98 C1.27558609,8.89009259 0.196070583,7.8360577 0.0740811957,6.49417444 C-0.0479081915,5.15229118 0.823838479,3.92086881 2.13,3.59 C2.13,3.59 2.13,3.41 2.13,3.41 L2.13,3.29 C2.13,3.29 2.19,3.1 2.21,3.06 L2.31,2.85 L2.36,2.75 L2.49,2.55 L2.63,2.37 L2.8,2.25 L2.87,2.17 L3.05,2.02 L3.24,1.88 L3.43,1.76 L3.65,1.66 L3.85,1.59 L4.1,1.53 L4.29,1.53 C4.38645965,1.52105307 4.48354035,1.52105307 4.58,1.53 L4.9,1.53 L5.1,1.53 C5.67999802,0.592727726 6.69790033,0.0159164184 7.8,0 C8.02467027,0.000101746779 8.24888652,0.0201808138 8.47,0.06 C10.1180201,0.387126569 11.242539,1.91977199 11.06,3.59 C12.4941341,3.70620199 13.5874519,4.9229011 13.5502302,6.36125365 C13.5130085,7.79960619 12.3582247,8.95812893 10.92,9 L9.8,8.98 Z" id="Path"></path>
        </g>
    </g>
</svg>