<svg id="Layer_2" data-name="Layer 2" xmlns="http://www.w3.org/2000/svg" xmlns:xlink="http://www.w3.org/1999/xlink" viewBox="0 0 13.35 18.14"><defs><style>.cls-1{fill:none;}.cls-2{fill:#fff;}.cls-3{clip-path:url(#clip-path);}</style><clipPath id="clip-path" transform="translate(-0.42 -0.27)"><rect class="cls-1" x="3.64" y="7.65" width="6.98" height="6.25"/></clipPath></defs><title>SWealth-white</title><path class="cls-2" d="M7.16,7.32a1.73,1.73,0,0,1-1-.41l-.47.71a2.53,2.53,0,0,0,1.29.52v.71h.71V8.11A1.31,1.31,0,0,0,8.79,6.76c0-1.35-1.93-1.29-1.93-2,0-.32.19-.45.54-.45a1.17,1.17,0,0,1,.8.36l.54-.6a1.86,1.86,0,0,0-1.09-.58V2.82H6.94v.71A1.28,1.28,0,0,0,5.83,4.84c0,1.27,1.93,1.25,1.93,2C7.76,7.16,7.57,7.32,7.16,7.32Z" transform="translate(-0.42 -0.27)"/><path class="cls-2" d="M2.83,8.89H4.48a.33.33,0,0,0,.33-.33.32.32,0,0,0-.33-.32H2.83a1.87,1.87,0,0,1,0-3.74h.39l0-.35V4A1.62,1.62,0,0,1,4.81,2.4H5a1.5,1.5,0,0,1,.51.15l.08,0a1.85,1.85,0,0,1,.39.3.33.33,0,1,0,.47-.45,2.8,2.8,0,0,0-.38-.32,2.38,2.38,0,0,1,4.32,2,2.35,2.35,0,0,0-.56.31.32.32,0,0,0-.05.45.31.31,0,0,0,.43.07,2,2,0,0,1,.51-.26h0a1.84,1.84,0,1,1,.52,3.6H10.1a.32.32,0,0,0-.32.32.32.32,0,0,0,.32.33h1.19a2.49,2.49,0,1,0,0-5h-.18A3,3,0,0,0,5.49,1.85l-.14,0h0l-.11,0H4.53l-.15,0-.08,0-.13,0-.09,0L4,2,3.88,2,3.77,2l-.08,0-.1.07-.08.05-.09.07-.08.06-.08.08-.07.07-.08.09-.06.07L3,2.74l-.06.08-.06.09,0,.09a.54.54,0,0,1-.05.11l0,.09a.49.49,0,0,1,0,.11l0,.1a.52.52,0,0,1,0,.11l0,.1s0,.08,0,.12,0,.07,0,.1,0,0,0,0a2.52,2.52,0,0,0,.26,5Z" transform="translate(-0.42 -0.27)"/><g class="cls-3"><path class="cls-2" d="M8.92,18.41a.33.33,0,0,0,.33-.33V8.72a.33.33,0,0,0-.66,0V9.81H6V8.72a.33.33,0,0,0-.33-.33.32.32,0,0,0-.32.33v9.36a.32.32,0,0,0,.32.33A.33.33,0,0,0,6,18.08V17H8.59v1.09A.33.33,0,0,0,8.92,18.41ZM6,12.64H8.59v1.52H6Zm2.61-2.18V12H6V10.46ZM6,16.34V14.81H8.59v1.53Z" transform="translate(-0.42 -0.27)"/></g></svg>