<?xml version="1.0" encoding="UTF-8"?>
<svg width="16px" height="12px" viewBox="0 0 16 12" version="1.1" xmlns="http://www.w3.org/2000/svg" xmlns:xlink="http://www.w3.org/1999/xlink">
    <!-- Generator: Sketch 52.5 (67469) - http://www.bohemiancoding.com/sketch -->
    <title>Shape</title>
    <desc>Created with Sketch.</desc>
    <g id="Page-1" stroke="none" stroke-width="1" fill="none" fill-rule="evenodd">
        <g id="list" fill="#FFFFFF">
            <path d="M2.1,0.5 L1,0.5 C0.7,0.5 0.5,0.7 0.5,1.1 L0.5,2.2 C0.5,2.5 0.7,2.8 1,2.8 L2.1,2.8 C2.4,2.8 2.6,2.6 2.6,2.2 L2.6,1.1 C2.6,0.7 2.4,0.5 2.1,0.5 Z M5.3,2.2 L15,2.2 C15.3,2.2 15.5,2 15.5,1.7 C15.5,1.4 15.3,1.1 15,1.1 L5.3,1.1 C5,1.1 4.8,1.3 4.8,1.6 C4.8,1.9 5,2.2 5.3,2.2 Z M2.1,4.9 L1,4.9 C0.7,4.9 0.5,5.1 0.5,5.5 L0.5,6.6 C0.5,6.9 0.7,7.2 1,7.2 L2.1,7.2 C2.4,7.2 2.6,7 2.6,6.6 L2.6,5.5 C2.6,5.1 2.4,4.9 2.1,4.9 Z M15,5.5 L5.3,5.5 C5,5.5 4.8,5.7 4.8,6 C4.8,6.3 5,6.5 5.3,6.5 L15,6.5 C15.3,6.5 15.5,6.3 15.5,6 C15.5,5.7 15.3,5.5 15,5.5 Z M2.1,9.3 L1,9.3 C0.7,9.3 0.5,9.5 0.5,9.9 L0.5,11 C0.5,11.3 0.7,11.5 1,11.5 L2.1,11.5 C2.4,11.5 2.6,11.3 2.6,11 L2.6,9.9 C2.6,9.5 2.4,9.3 2.1,9.3 Z M15,9.8 L5.3,9.8 C5,9.8 4.8,10 4.8,10.4 C4.8,10.7 5,11 5.3,11 L15,11 C15.3,11 15.5,10.8 15.5,10.4 C15.5,10.1 15.3,9.8 15,9.8 Z" id="Shape"></path>
        </g>
    </g>
</svg>